<svg width="60" height="60" viewBox="0 0 60 60" fill="none" xmlns="http://www.w3.org/2000/svg">
<g clip-path="url(#clip0_2_549)">
<path d="M47.5 50H15C7.18593 50.0046 0.677235 44.0096 0.0409105 36.2215C-0.595415 28.4334 4.85381 21.4613 12.565 20.1975C16.1143 13.9047 22.7753 10.0088 30 9.99986C34.5042 9.98339 38.8793 11.5038 42.4025 14.31C45.8623 17.054 48.3223 20.8608 49.4025 25.1425C55.8694 26.1274 60.4833 31.9315 59.9841 38.4539C59.4849 44.9763 54.0414 50.0107 47.5 50ZM30 15C24.5793 15.0064 19.5817 17.9302 16.92 22.6525L15.75 24.75L13.3775 25.1375C8.25321 25.996 4.64002 30.6357 5.06304 35.8142C5.48605 40.9927 9.80431 44.9845 15 45H47.5C51.4214 45.004 54.684 41.9865 54.9855 38.0767C55.287 34.1668 52.5257 30.6847 48.65 30.0875L45.36 29.5875L44.555 26.3575C42.8932 19.6745 36.8865 14.9874 30 15Z" fill="#7879F1"/>
</g>
<defs>
<clipPath id="clip0_2_549">
<rect width="60" height="60" fill="white"/>
</clipPath>
</defs>
</svg>
